<?xml version="1.0" encoding="UTF-8"?>
<svg id="Layer_2" data-name="Layer 2" xmlns="http://www.w3.org/2000/svg" viewBox="0 0 310.04 67.02">
  <defs>
    <style>
      .cls-1 {
        fill: #876;
        stroke: #876;
      }

      .cls-1, .cls-2 {
        stroke-miterlimit: 10;
        stroke-width: 0px;
      }

      .cls-2 {
        fill: #b23428;
        stroke: #b23428;
      }
    </style>
  </defs>
  <g id="Layer_1-2" data-name="Layer 1">
    <g>
      <path class="cls-2" d="M49.38,9.7c-.06.03-.09.1-.08.17.85,4.1.18,11.24-4.47,17.86l-5.12,7.48-4.24,6.33c-6.68,9.88-4.91,20.61-2.09,25.41.04.06.11.09.17.07.07-.02.11-.08.11-.15v-1.66c-.08-4.79-.12-8.24,5.45-17.3,2.22-3.61,4.08-6.4,5.72-8.85,2.88-4.32,4.96-7.43,6.61-11.55,2.98-7.44.64-15-1.88-17.77-.05-.05-.12-.06-.18-.03h0Z"/>
      <path class="cls-2" d="M43.68.32c-.06.04-.09.12-.06.19,1.67,3.96-.07,10.07-4.76,16.75l-6.8,9.89-3.3,4.89c-6.78,10.02-3.86,20.75-1.07,25.51.04.06.11.09.17.07.07-.02.11-.08.11-.15v-1.6c-.07-5.08-.13-9.87,5.48-18.99,2.77-4.5,4.87-7.26,6.57-9.48,2.12-2.77,3.65-4.77,5.08-8.34,3-7.48,1.31-15.95-1.22-18.73-.05-.06-.13-.07-.2-.03h0Z"/>
      <path class="cls-2" d="M24.6,17.97c0,2.09,1.7,3.79,3.79,3.79s3.79-1.7,3.79-3.79-1.7-3.79-3.79-3.79-3.79,1.7-3.79,3.79h0Z"/>
      <path class="cls-2" d="M53.71,32.85c0,2.09,1.7,3.79,3.79,3.79s3.79-1.7,3.79-3.79-1.7-3.79-3.79-3.79-3.79,1.7-3.79,3.79h0Z"/>
      <path class="cls-2" d="M.03,18.31s-.06.12-.03.18c.03.06.1.09.17.08,1.29-.29,2.74-.41,4.08-.43,10.72-.15,18.26,8.19,18.26,18.26l-.02.77c0,.07.05.14.12.15.07.02.14-.02.17-.08,1.04-2.22,1.56-4.61,1.56-7.11,0-8.69-6.41-15.4-14.44-15.4-3.55,0-7.22,1.03-9.88,3.58H.03Z"/>
      <path class="cls-2" d="M44.16,47.94c-.04.06-.03.14.02.19.05.05.13.06.19.02,7.91-5.4,18.65-4.8,26.11,1.45,1.66,1.39,3.1,3.01,4.27,4.8.04.06.11.08.18.06.07-.02.11-.09.1-.16-1.21-8.16-8.34-14.31-16.6-14.31-5.85,0-11.19,2.97-14.27,7.95h0Z"/>
      <path class="cls-1" d="M119.95,3.02c0,.63-.29,1.35-.71,1.79-.37.38-.8.52-1.56.52h-1.09V.77h1.09c1.3,0,2.26.96,2.26,2.25h0ZM120.7,3.03c0-1.66-1.22-2.86-2.9-2.86h-1.92v5.77h1.91c1.01,0,1.61-.23,2.13-.84.5-.57.78-1.32.78-2.07h0Z"/>
      <polygon class="cls-1" points="128.03 5.94 128.03 .17 128.75 .17 128.75 5.94 128.03 5.94 128.03 5.94"/>
      <path class="cls-1" d="M138.43,6.09h-.44l-2.27-5.92h.77l1.71,4.5c.03.08.05.17.06.28,0-.11.02-.18.05-.28l1.64-4.5h.72l-2.24,5.92h0Z"/>
      <polygon class="cls-1" points="147.64 5.94 147.64 .17 148.36 .17 148.36 5.94 147.64 5.94 147.64 5.94"/>
      <path class="cls-1" d="M159.12,1.15c-.3-.18-.42-.24-.6-.3-.22-.07-.57-.12-.8-.12-.66,0-1.1.32-1.1.81,0,.43.25.65,1.43,1.27.39.21.7.4.91.58.28.24.45.63.45,1.05,0,.99-.74,1.61-1.9,1.61-.39,0-.76-.07-1.07-.19-.22-.09-.37-.18-.74-.43l.37-.57c.32.22.46.3.66.38.25.1.53.15.83.15.68,0,1.09-.32,1.09-.87,0-.17-.03-.31-.09-.41-.1-.18-.26-.34-.49-.47-.1-.05-.42-.22-.96-.52-.87-.46-1.23-.92-1.23-1.51,0-.92.76-1.53,1.91-1.53.33,0,.67.04.97.14.24.08.38.15.7.34l-.33.6h0Z"/>
      <polygon class="cls-1" points="166.83 5.94 166.83 .17 167.54 .17 167.54 5.94 166.83 5.94 166.83 5.94"/>
      <path class="cls-1" d="M179.89,3.06c0,1.3-.95,2.37-2.11,2.37s-2.12-1.07-2.12-2.37.95-2.36,2.12-2.36,2.11,1.07,2.11,2.36h0ZM180.68,3.06c0-1.73-1.21-2.99-2.89-2.99s-2.9,1.26-2.9,2.99,1.22,3,2.9,3,2.89-1.26,2.89-3h0Z"/>
      <path class="cls-1" d="M191.91,5.99l-2.91-4.5s-.07-.11-.11-.2c-.03-.06-.06-.1-.07-.13-.04-.06-.05-.11-.09-.22v5h-.72V.17h.93l2.86,4.4s.05.09.08.14c.04.09.05.1.1.26,0,.02.02.05.04.09V.17h.72v5.82h-.83Z"/>
      <path class="cls-1" d="M211.63,1.15c-.3-.18-.42-.24-.6-.3-.22-.07-.57-.12-.79-.12-.66,0-1.1.32-1.1.81,0,.43.25.65,1.42,1.27.39.21.7.4.91.58.28.24.45.63.45,1.05,0,.99-.73,1.61-1.9,1.61-.39,0-.76-.07-1.07-.19-.22-.09-.37-.18-.75-.43l.37-.57c.33.22.46.3.67.38.25.1.53.15.83.15.68,0,1.09-.32,1.09-.87,0-.17-.03-.31-.09-.41-.1-.18-.26-.34-.49-.47-.1-.05-.42-.22-.96-.52-.87-.46-1.23-.92-1.23-1.51,0-.92.76-1.53,1.91-1.53.33,0,.67.04.97.14.24.08.38.15.7.34l-.33.6h0Z"/>
      <path class="cls-1" d="M223.11,1.16c-.44-.31-.86-.44-1.42-.44-1.22,0-2.1.94-2.1,2.26,0,1.45.88,2.4,2.24,2.4.49,0,.87-.08,1.33-.27l.2.56c-.35.16-.49.21-.78.28-.29.07-.52.1-.79.1-1.74,0-2.97-1.25-2.97-3.03s1.25-2.96,2.9-2.96c.38,0,.74.06,1.08.19.25.09.38.16.66.36l-.36.54h0Z"/>
      <path class="cls-1" d="M235.07,3.06c0,1.3-.95,2.37-2.11,2.37s-2.12-1.07-2.12-2.37.95-2.36,2.12-2.36,2.11,1.07,2.11,2.36h0ZM235.85,3.06c0-1.73-1.21-2.99-2.89-2.99s-2.9,1.26-2.9,2.99,1.22,3,2.9,3,2.89-1.26,2.89-3h0Z"/>
      <polygon class="cls-1" points="243.19 5.94 243.19 .17 243.9 .17 243.9 5.34 246.48 5.34 246.48 5.94 243.19 5.94 243.19 5.94"/>
      <path class="cls-1" d="M256.05,3.58h-1.88l.94-2.64.94,2.64h0ZM257.64,5.94L255.5,0h-.77l-2.15,5.94h.77l.59-1.7h2.33l.6,1.7h.77Z"/>
      <polygon class="cls-1" points="264.61 5.94 264.61 .17 265.32 .17 265.32 5.94 264.61 5.94 264.61 5.94"/>
      <path class="cls-1" d="M275.98,1.74c0,.74-.39,1.13-1.15,1.13h-.94V.77h.94c.51,0,.66.03.84.17.21.17.31.43.31.8h0ZM277.07,5.94l-1.7-2.58c.43-.1.64-.2.87-.44.32-.31.51-.74.51-1.2s-.17-.86-.45-1.13c-.33-.32-.67-.43-1.36-.43h-1.76v5.77h.71v-2.47h.77l1.59,2.47h.82Z"/>
      <polygon class="cls-1" points="284.23 5.94 284.23 .17 287.47 .17 287.47 .77 284.94 .77 284.94 2.7 287.03 2.7 287.03 3.3 284.94 3.3 284.94 5.34 287.55 5.34 287.55 5.94 284.23 5.94 284.23 5.94"/>
      <path class="cls-1" d="M92.93,45.48c.79-1.08,1.33-2.8,1.33-4.82v-16.77c0-3.15-.34-3.69-.93-4.82h6.24c-.59,1.13-.94,1.67-.94,4.82v18.53h3.35c3.05,0,5.37-.7,6.69-1.2l-1.4,4.26h-14.34Z"/>
      <path class="cls-1" d="M119.55,33.55c0-5.24,2.54-8.92,7.26-8.92s7.7,4.11,7.7,9.23-2.97,9-7.26,9c-4.76,0-7.69-3.71-7.69-9.31h0ZM126.9,45.92c7.04,0,12.46-5.42,12.46-12.15s-5.38-12.2-12.15-12.2c-7.21,0-12.5,5.55-12.5,12.28s5.46,12.06,12.2,12.06h0Z"/>
      <path class="cls-1" d="M163.12,43.47c-1.22.74-3.8,2.45-7.17,2.45-5.95,0-7.52-4.59-7.52-8.04v-11.58c0-2.8-.3-3.28-.83-4.29h6.03c-.52,1.01-.83,1.49-.83,4.29v8.48c0,2.45,0,8.09,5.16,8.09,4.76,0,5.11-4.11,5.11-7.3v-9.27c0-2.8-.31-3.28-.83-4.29h6.03c-.52,1.01-.83,1.49-.83,4.29v14.6c0,2.8.66,3.93,1.01,4.59h-5.33v-2.01h0Z"/>
      <path class="cls-1" d="M192.34,40.19c1.79,1.44,3.06,2.67,5.82,2.67,2.36,0,4.2-1.35,4.2-3.37,0-4.41-10.01-4.02-10.01-10.88,0-3.89,3.23-7.04,7.65-7.04,2.14,0,4.11.66,5.29.92l-.22,4.15c-1.14-.79-2.75-2.01-4.94-2.01-2.06,0-3.63,1.27-3.63,2.84,0,4.37,10.01,4.5,10.01,11.06,0,3.93-3.72,7.39-8.04,7.39-2.63,0-4.99-.79-6.34-1.14l.22-4.59h0Z"/>
      <path class="cls-1" d="M273.75,45.48c.52-1.01.83-1.49.83-4.28v-14.91c0-2.8-.31-3.28-.83-4.29h13.72l-1.22,3.85c-1.97-.66-2.41-.79-5.68-.79-.44,0-1.18,0-1.62.09v6.82h7.56l-1.23,3.63c-1.44-.31-2.71-.57-4.11-.57-.66,0-1.49.04-2.23.09v7.21c.52.04,1.27.09,1.79.09,3.8,0,5.42-.48,7.08-.96l-1.27,4.02h-12.81Z"/>
      <path class="cls-1" d="M295.52,45.48c.7-.96,1.18-2.49,1.18-4.28v-14.91c0-2.8-.31-3.28-.83-4.29h6.03c-.52,1.01-.83,1.49-.83,4.29v16.13h2.97c2.71,0,4.81-.75,5.99-1.18l-1.4,4.24h-13.11Z"/>
      <path class="cls-1" d="M178.2,27v14.2c0,2.8-.3,3.28-.83,4.28h6.03c-.52-1.01-.83-1.49-.83-4.28v-14.2h-4.37Z"/>
      <path class="cls-1" d="M183.4,22.01h-6.03c.41.78.68,1.26.78,2.72h4.47c.1-1.47.38-1.94.78-2.72h0Z"/>
      <path class="cls-1" d="M259.61,27v14.2c0,2.8-.3,3.28-.83,4.28h6.03c-.53-1.01-.83-1.49-.83-4.28v-14.2h-4.37Z"/>
      <path class="cls-1" d="M264.81,22.01h-6.03c.41.78.68,1.26.78,2.72h4.47c.1-1.47.38-1.94.78-2.72h0Z"/>
      <path class="cls-1" d="M236.64,22.37c2.76,0,6.88-.3,7.16,4.16.18,2.84-.77,5.35-3.62,5.35-.46,0-.88-.04-1.29-.04v1.27h.01s1.58,2.85,3.29,5.62c1.43,2.33,2.93,4.57,3.97,5.36,2.29,1.73,5.65,1.39,5.65,1.39-.71-.72-3.08-3.77-4.81-6.73-1.48-2.54-2.62-5.09-2.62-5.09,2.06-.79,4.29-2.94,4-7.57-.12-1.91-.73-4.06-2.71-5.58-1.41-1.09-3.36-1.58-7.93-1.58-2.31,0-2.82.15-6.46.15.49,1.13.98,2.02.98,3.88v16.57c0,3.59-.1,3.84-.88,5.95h6.09c-.69-1.67-.84-2.61-.84-6.05v-17.07h0Z"/>
      <path class="cls-1" d="M126.84,61.61c-.3-.17-.42-.24-.6-.3-.22-.07-.57-.12-.8-.12-.66,0-1.1.32-1.1.81,0,.43.25.65,1.42,1.27.39.21.7.4.91.58.28.24.45.63.45,1.05,0,.99-.73,1.61-1.9,1.61-.39,0-.76-.07-1.07-.19-.22-.09-.37-.17-.74-.43l.37-.57c.32.22.46.3.66.38.25.1.53.15.83.15.68,0,1.09-.32,1.09-.87,0-.17-.03-.31-.09-.41-.1-.18-.26-.34-.49-.47-.1-.05-.42-.22-.96-.52-.86-.46-1.23-.92-1.23-1.51,0-.92.76-1.53,1.91-1.53.33,0,.67.04.97.14.24.08.38.15.7.34l-.33.6h0Z"/>
      <path class="cls-1" d="M138.32,61.62c-.44-.31-.86-.44-1.42-.44-1.22,0-2.1.94-2.1,2.26,0,1.45.88,2.4,2.24,2.4.49,0,.87-.08,1.33-.27l.2.56c-.35.16-.49.21-.78.28-.29.07-.52.1-.79.1-1.74,0-2.97-1.25-2.97-3.03s1.25-2.96,2.9-2.96c.38,0,.74.06,1.09.19.25.09.38.16.66.36l-.36.54h0Z"/>
      <polygon class="cls-1" points="149.9 66.4 149.9 63.76 146.5 63.76 146.5 66.4 145.78 66.4 145.78 60.63 146.5 60.63 146.5 63.11 149.9 63.11 149.9 60.63 150.62 60.63 150.62 66.4 149.9 66.4 149.9 66.4"/>
      <path class="cls-1" d="M162.96,63.52c0,1.3-.95,2.37-2.11,2.37s-2.12-1.07-2.12-2.37.95-2.36,2.12-2.36,2.11,1.07,2.11,2.36h0ZM163.75,63.52c0-1.73-1.22-2.99-2.89-2.99s-2.9,1.26-2.9,2.99,1.22,3,2.9,3,2.89-1.26,2.89-3h0Z"/>
      <path class="cls-1" d="M175.58,63.52c0,1.3-.95,2.37-2.11,2.37s-2.12-1.07-2.12-2.37.95-2.36,2.12-2.36,2.11,1.07,2.11,2.36h0ZM176.37,63.52c0-1.73-1.22-2.99-2.89-2.99s-2.9,1.26-2.9,2.99,1.23,3,2.9,3,2.89-1.26,2.89-3h0Z"/>
      <polygon class="cls-1" points="183.7 66.4 183.7 60.63 184.42 60.63 184.42 65.8 187 65.8 187 66.4 183.7 66.4 183.7 66.4"/>
      <path class="cls-1" d="M206.18,63.48c0,.63-.29,1.35-.71,1.79-.37.38-.79.52-1.56.52h-1.09v-4.56h1.09c1.3,0,2.26.96,2.26,2.25h0ZM206.93,63.49c0-1.66-1.21-2.86-2.9-2.86h-1.93v5.77h1.91c1,0,1.61-.23,2.13-.84.5-.57.78-1.32.78-2.07h0Z"/>
      <polygon class="cls-1" points="214.27 66.4 214.27 60.63 214.98 60.63 214.98 66.4 214.27 66.4 214.27 66.4"/>
      <path class="cls-1" d="M224.66,66.55h-.44l-2.27-5.92h.77l1.7,4.5c.04.08.05.17.06.28,0-.11.02-.18.05-.28l1.64-4.5h.72l-2.24,5.92h0Z"/>
      <polygon class="cls-1" points="233.88 66.4 233.88 60.63 234.59 60.63 234.59 66.4 233.88 66.4 233.88 66.4"/>
      <path class="cls-1" d="M245.36,61.61c-.3-.17-.42-.24-.6-.3-.22-.07-.57-.12-.8-.12-.66,0-1.1.32-1.1.81,0,.43.25.65,1.42,1.27.4.21.7.4.91.58.28.24.45.63.45,1.05,0,.99-.73,1.61-1.9,1.61-.39,0-.76-.07-1.06-.19-.22-.09-.37-.17-.74-.43l.37-.57c.32.22.46.3.66.38.25.1.53.15.83.15.68,0,1.09-.32,1.09-.87,0-.17-.03-.31-.09-.41-.1-.18-.26-.34-.49-.47-.1-.05-.42-.22-.96-.52-.86-.46-1.23-.92-1.23-1.51,0-.92.76-1.53,1.91-1.53.33,0,.67.04.97.14.24.08.38.15.7.34l-.33.6h0Z"/>
      <polygon class="cls-1" points="253.06 66.4 253.06 60.63 253.78 60.63 253.78 66.4 253.06 66.4 253.06 66.4"/>
      <path class="cls-1" d="M266.12,63.52c0,1.3-.95,2.37-2.11,2.37s-2.12-1.07-2.12-2.37.95-2.36,2.12-2.36,2.11,1.07,2.11,2.36h0ZM266.91,63.52c0-1.73-1.22-2.99-2.89-2.99s-2.9,1.26-2.9,2.99,1.23,3,2.9,3,2.89-1.26,2.89-3h0Z"/>
      <path class="cls-1" d="M278.14,66.46l-2.91-4.5s-.07-.11-.11-.2c-.04-.06-.06-.1-.07-.13-.03-.06-.05-.11-.09-.22v5h-.72v-5.77h.94l2.86,4.4s.05.09.08.14c.03.09.04.1.1.26,0,.02.02.05.03.09v-4.89h.72v5.82h-.83Z"/>
    </g>
  </g>
</svg>